<?xml version="1.0" ?><svg viewBox="0 0 100 100" xmlns="http://www.w3.org/2000/svg"><title/><circle cx="50" cy="50" fill="#e6e6e6" r="49.5"/><path d="M61.40262,58.62662a2.49982,2.49982,0,0,1-1.59668-4.4248,5.45557,5.45557,0,0,0,.00049-8.4043A2.50036,2.50036,0,0,1,62.99588,41.946a10.45633,10.45633,0,0,1,.00049,16.10547A2.48863,2.48863,0,0,1,61.40262,58.62662Z" fill="#ffab80"/><path d="M67.69217,66.22916a2.50006,2.50006,0,0,1-1.59473-4.42676,15.31689,15.31689,0,0,0,0-23.60645A2.50018,2.50018,0,0,1,69.284,34.34244a20.31786,20.31786,0,0,1,0,31.31348A2.49321,2.49321,0,0,1,67.69217,66.22916Z" fill="#ffab80"/><path d="M73.81131,73.62272a2.49974,2.49974,0,0,1-1.59619-4.4248,24.92052,24.92052,0,0,0,0-38.39844,2.49961,2.49961,0,1,1,3.18945-3.84961,29.91834,29.91834,0,0,1,0,46.09766A2.48831,2.48831,0,0,1,73.81131,73.62272Z" fill="#ffab80"/><path d="M46.68216,24.06779l-13.5,13h-11.89a4.76508,4.76508,0,0,0-3.79,1.86,18.22912,18.22912,0,0,0,0,22.15,4.79448,4.79448,0,0,0,3.79,1.86h11.89l13.5,12.99a2.98729,2.98729,0,0,0,5.06-2.15v-47.56A2.98952,2.98952,0,0,0,46.68216,24.06779Z" fill="#2b687f"/><path d="M33.15213,37.06779v25.87h-11.86a4.79448,4.79448,0,0,1-3.79-1.86,18.22912,18.22912,0,0,1,0-22.15,4.76508,4.76508,0,0,1,3.79-1.86Z" fill="#10556b"/></svg>